<?xml version="1.0" encoding="utf-8"?>
<!-- Generator: Adobe Illustrator 22.1.0, SVG Export Plug-In . SVG Version: 6.00 Build 0)  -->
<svg version="1.1" id="Layer_1" xmlns="http://www.w3.org/2000/svg" xmlns:xlink="http://www.w3.org/1999/xlink" x="0px" y="0px"
	 viewBox="0 0 220 185.8" style="enable-background:new 0 0 220 185.8;" xml:space="preserve">
<style type="text/css">
	.st0{fill:#FFFFFF;}
</style>
<title>Asset 1</title>
<g id="Layer_2_1_">
	<g id="Layer_1-2">
		<path id="_Compound_Path_" class="st0" d="M22.8,50.8c2.8-2.2,6.1-5,9.9-8.3c1.4-1.2,2.5-2.2,3.4-3.1c0.9-0.9,1.6-2,2.2-3.1
			c0.7-1.5,1.3-3,1.8-4.5l2.5-7.4h-0.3c-1,2.5-2.6,4.7-4.5,6.5c-1.9,1.6-3.9,3.1-6,4.5c-2.3,1.6-4.5,3.3-6.5,5.2
			c-2.4,2.3-4.4,5.1-5.9,8.2v-0.3c1.6-4.5,2.7-8.3,3.5-11.4c0.8-3.1,1.5-5.8,2.1-8.1c0.5-2.1,1.3-4.2,2.3-6.1
			c1.1-1.9,2.7-3.6,4.5-4.9v-0.3c-4.7,1.2-8.8,4.2-11.4,8.3c-2.9,4.3-4.5,9.3-4.4,14.5v18.1C17.8,55.6,20.1,53,22.8,50.8z M35,28.7
			c2.3-2.4,4.6-5,6.6-7.6c2-2.6,3.9-5,5.7-7.4c1.8-2.3,3.8-4.4,6.1-6.3l-0.3-0.3c-1.7,1.5-3.7,2.5-5.8,3.1c-2.6,0.8-5.1,1.9-7.4,3.4
			c-3,1.9-5.5,4.5-7.5,7.4c-2.4,3.3-4.5,8.3-6.2,14.9C29.4,33.8,32.4,31.4,35,28.7z M6,96.4c1.8,2.7,3.7,5.2,5.8,7.6
			c2.4,2.9,4.5,5.9,6.3,9.2h0.2c-0.2-1.4-0.3-2.8-0.3-4.2v-3.6c0.2-2.3,0.7-4.6,1.5-6.8c1-3.2,2-6.7,3.1-10.6
			c1.1-3.9,2-7.8,2.8-11.8c0.8-3.5,1-7,0.7-10.6h-0.3c-0.6,2.3-1.5,4.6-2.7,6.6c-1.3,2.2-2.6,4.4-4,6.7c-1.4,2.4-2.6,4.9-3.6,7.5
			c-1.1,2.8-1.6,5.7-1.6,8.7c0.1,1.4,0.3,2.9,0.6,4.3c0.3,1.1,0.5,2.1,0.6,3.2h-0.3c-0.6-3.7-1.6-7.3-2.9-10.9
			c-1.3-3.4-2.6-6.6-3.9-9.6s-2.3-5.6-3.2-8c-0.7-1.9-1.2-3.9-1.3-6c0-1.4,0-2.8,0.2-4.1c0.1-1.3,0.2-2.6,0.2-3.9H3.6
			c-0.8,2.2-1.5,4.4-2.1,6.7c-0.8,2.7-1.2,5.5-1.2,8.3c-0.1,4.2,0.4,8.5,1.5,12.5C2.8,90.8,4.2,93.7,6,96.4z M53.1,166.5
			c2.2,0.2,4.5,0.2,6.7-0.1c1.2-0.2,2.8-0.4,4.7-0.8s4.3-0.9,7.4-1.7s7-1.8,12-3c-3.3-0.9-6.1-1.7-8.5-2.4c-2.7-0.9-5.2-2.5-7.2-4.5
			c-2.9-2.6-5.9-5.2-8.8-8c-2.3-2.1-4.7-4.1-7-6.2c-0.7-0.6-4-3.6-5-4.6l-0.3,0.3c0.4,0.6,3.6,7,3.6,7s0.5,0.7,0.7,1.1
			c0.9,1.5,1.7,3.1,2.5,4.6c0.3,0.6,0.7,1.2,1,1.8c1,2,2.5,3.7,4.3,5c2.2,2.1,5.8,3.9,10.9,5.4v0.3c-2.2-0.3-4.1-0.6-5.6-0.9
			c-1.5-0.3-2.9-0.5-4.2-0.6s-2.5-0.3-3.8-0.4c-1.5-0.1-3.1-0.2-4.7-0.4c-1.2-0.2-2.4-0.4-3.6-0.6l-3.6-0.4l-1.9-0.2
			c-2.2-0.2-4.4-0.6-6.5-1.2c-2.1-0.5-4-1.4-5.9-2.5c-2.2-1.4-4.3-3-6.2-4.8l-0.3,0.3c1,1.8,2.2,3.4,3.5,4.9
			c1.7,1.9,3.5,3.6,5.5,5.2c2.3,1.8,4.9,3.3,7.7,4.5c3.3,1.3,6.7,2.2,10.1,2.6L53.1,166.5z M12.7,85.5h0.3c0.1-1.4,0.4-2.8,0.8-4.1
			c0.5-1.5,1.1-3,1.9-4.3c1.2-2.1,2.6-4.2,4-6.2c1.7-2.4,4-5.7,6.9-9.8c1.8-2.8,3.2-5.8,4.1-9c1-3.5,1.7-6,2-7.5h-0.3
			c-0.3,0.8-0.7,1.5-1.1,2.2c-0.4,0.6-1,1.3-1.7,2.1s-1.6,1.6-2.7,2.6s-2.6,2.4-4.5,4.1c-3.4,3.1-5.6,6-6.6,8.5
			c-1.1,2.8-1.9,5.6-2.6,8.5h-0.3c0.1-1.4,0.2-2.7,0.3-4s0.1-3,0.1-5c0-2.6-0.2-5.6-0.5-9s-0.5-7.9-0.5-13.5c0-1.7,0.3-3.4,1-4.9
			c0.7-1.5,1.3-3,1.8-4.4H15c-3.2,3.9-5.8,8.3-7.5,13c-1.3,3.9-2,7.9-2,12c0,4.7,1,9.3,2.7,13.6C10.1,75.3,11.6,80.4,12.7,85.5
			L12.7,85.5z M39.7,152.5l10.8,2.4l5.6,1.3c-2-1.7-5.5-7.3-5.5-7.3c-1.4-2.2-2.5-4.6-3.4-7.1c-1-2.8-2.5-6.6-4.4-11.3
			c-0.5-1.4-1-2.8-1.7-4.1c-0.6-1.2-1.3-2.4-2.1-3.8s-1.7-2.8-2.8-4.4s-2.6-3.7-4.3-6.1l-0.3,0.3c0.5,1.7,1.2,4.8,2.2,9.3
			s1.8,8.7,2.7,12.7c0.5,2.9,1.7,5.7,3.5,8.1c2.1,2.8,4.5,5.3,7.1,7.6l-0.3,0.3c-1.2-0.4-3.3-1.7-6.2-4.1c-2.9-2.4-6-4.4-9.4-5.9
			c-5.3-2.6-10.5-5.5-15.5-8.7c-3.8-2.5-6.7-6-8.5-10.2l-0.3,0.3c1,4.1,2.6,8.1,4.9,11.6c2.1,3.4,4.7,6.4,7.7,9.1
			c2.9,2.6,6.2,4.7,9.6,6.5C32.6,150.5,36.1,151.7,39.7,152.5L39.7,152.5z M15.5,125.8l19.1,12.7c-0.8-1.7-1.6-3.4-2.1-4.9
			c-0.6-1.7-1.1-3.4-1.4-5.2c-0.3-1.9-0.6-4-0.9-6.3c-0.3-2.3-0.5-5.1-0.9-8.4c-0.7-5.7-1.3-10.1-1.8-13.2
			c-0.6-3.4-1.5-6.8-2.8-10.1h-0.3c0,2.5-0.1,5-0.4,7.5c-0.2,1.9-0.6,3.8-1,5.7c-0.4,1.7-0.8,3.3-1,4.8c-0.3,1.7-0.4,3.3-0.4,5
			c0.1,2.5,0.7,5,1.7,7.4c0.9,2.5,1.9,5,3.1,7.4l-0.3,0.3c-2.5-4.1-5.4-8-8.6-11.5c-2.8-3-5.4-5.8-7.7-8.3c-2.2-2.3-4.2-4.8-5.9-7.4
			c-1.8-2.7-2.9-5.8-3.3-9c-0.2,0.8-0.4,1.6-0.5,2.5C0,95.5,0,96.3,0,97.1c0,3,0.5,6.1,1.5,8.9c1,2.9,2.3,5.8,3.9,8.4
			c1.4,2.4,3.1,4.7,5,6.8C11.9,123,13.6,124.5,15.5,125.8z M172.7,13.8c1.8,2.3,3.7,4.8,5.7,7.4c2.1,2.7,4.3,5.2,6.6,7.6
			c2.6,2.7,5.6,5.1,8.8,7.1c-1.7-6.6-3.8-11.5-6.2-14.9c-2-2.9-4.5-5.4-7.5-7.4c-2.3-1.4-4.8-2.5-7.4-3.4c-2.1-0.6-4.1-1.7-5.8-3.1
			l-0.3,0.3C168.8,9.3,170.9,11.4,172.7,13.8z M189.7,153.5c-1.8,1.1-3.8,1.9-5.9,2.4c-2.1,0.5-4.3,0.9-6.5,1.2l-1.9,0.2l-3.6,0.4
			c-1.2,0.1-2.4,0.4-3.6,0.6c-1.5,0.2-3.1,0.3-4.7,0.4c-1.3,0.1-2.5,0.2-3.8,0.4s-2.6,0.4-4.2,0.6s-3.4,0.6-5.6,0.9v-0.3
			c5.1-1.5,8.7-3.4,10.9-5.4c1.8-1.3,3.3-3,4.3-5c0.3-0.6,0.6-1.2,1-1.8c0.8-1.6,1.7-3.1,2.5-4.6c0.2-0.4,0.7-1.1,0.7-1.1
			s3.2-6.4,3.6-7l-0.3-0.3c-1,1-4.4,4-5,4.6c-2.3,2.1-4.7,4.1-7,6.2c-2.9,2.8-5.8,5.4-8.8,8c-2.1,2-4.5,3.6-7.2,4.5
			c-2.4,0.8-5.3,1.6-8.5,2.4c5,1.2,9,2.2,12,3c3,0.8,5.5,1.3,7.4,1.7s3.4,0.6,4.6,0.8c1.3,0.2,2.6,0.3,3.9,0.3c1,0,1.9,0,2.9-0.1
			c0.8-0.1,2.4-0.3,2.4-0.3c3.5-0.4,6.9-1.3,10.1-2.6c2.8-1.1,5.3-2.6,7.7-4.5c2-1.6,3.8-3.3,5.5-5.2c1.3-1.5,2.5-3.2,3.5-4.9
			l-0.3-0.3C194,150.6,191.9,152.2,189.7,153.5L189.7,153.5z M204.2,131.7c-5,3.2-10.1,6.1-15.5,8.7c-3.4,1.6-6.5,3.6-9.4,5.9
			c-2.9,2.4-5,3.8-6.2,4.1l-0.3-0.3c2.6-2.3,5-4.8,7.1-7.6c1.8-2.4,3-5.2,3.5-8.1c0.9-4,1.8-8.2,2.7-12.7c1-4.5,1.7-7.6,2.2-9.3
			l-0.3-0.3c-1.7,2.4-3.1,4.4-4.3,6.1s-2.1,3.1-2.9,4.4s-1.5,2.6-2.1,3.8c-0.7,1.3-1.2,2.7-1.7,4.1c-1.9,4.7-3.4,8.4-4.4,11.3
			c-0.9,2.5-2,4.9-3.4,7.1c0,0-3.5,5.6-5.5,7.3l5.6-1.3l10.8-2.4c3.6-0.7,7.1-2,10.4-3.6c3.5-1.7,6.7-3.9,9.6-6.5
			c3-2.6,5.6-5.7,7.7-9.1c2.2-3.6,3.9-7.5,4.8-11.6l-0.3-0.3C210.8,125.6,207.9,129.2,204.2,131.7L204.2,131.7z M212,82.2
			c-1.3,2.9-2.5,6.1-3.8,9.6c-1.3,3.5-2.3,7.2-2.9,10.9H205c0.1-1.1,0.3-2.2,0.6-3.2c0.4-1.4,0.6-2.8,0.6-4.3c0-3-0.5-5.9-1.6-8.7
			c-1-2.6-2.2-5.1-3.6-7.5c-1.4-2.3-2.7-4.6-4-6.7c-1.3-2-2.2-4.3-2.7-6.6H194c-0.3,3.5-0.1,7.1,0.7,10.6c0.8,4,1.7,7.9,2.8,11.8
			c1.1,3.8,2.1,7.4,3.1,10.6c0.8,2.2,1.3,4.5,1.5,6.8v3.6c0,1.4-0.1,2.8-0.3,4.1h0.2c1.8-3.3,3.9-6.3,6.3-9.2c2.1-2.4,4-5,5.8-7.6
			c1.8-2.7,3.1-5.6,4.1-8.7c1.1-4.1,1.7-8.3,1.5-12.5c-0.1-2.8-0.5-5.6-1.2-8.3c-0.6-2.3-1.3-4.5-2.1-6.7H216c0,1.3,0,2.6,0.2,3.9
			c0.1,1.4,0.2,2.8,0.2,4.1c-0.1,2.1-0.5,4.1-1.3,6C214.2,76.6,213.2,79.2,212,82.2z M204.1,64.1c-1-2.6-3.2-5.4-6.6-8.5l-4.5-4.1
			c-1.1-1-2-2-2.7-2.7s-1.2-1.5-1.7-2.1c-0.5-0.7-0.9-1.4-1.1-2.2h-0.3c0.3,1.5,1,4,2.1,7.5c0.9,3.2,2.3,6.3,4,9.1
			c2.9,4.1,5.2,7.4,6.9,9.8c1.4,2,2.8,4.1,4,6.2c0.8,1.4,1.4,2.9,1.9,4.4c0.4,1.4,0.6,2.7,0.8,4.1h0.3c1.1-5.1,2.6-10.2,4.5-15.1
			c1.7-4.3,2.6-8.9,2.7-13.6c0-4.1-0.7-8.1-2-12c-1.7-4.8-4.2-9.2-7.5-13.1h-0.3c0.5,1.4,1.1,2.8,1.8,4.4c0.7,1.5,1,3.2,1,4.9
			c0,5.5-0.2,10-0.5,13.5c-0.3,3.4-0.5,6.4-0.5,9c0,2.1,0,3.8,0.1,5s0.1,2.6,0.3,4h-0.3C206,69.6,205.2,66.8,204.1,64.1L204.1,64.1z
			 M192.7,23c1,1.9,1.8,3.9,2.3,6c0.6,2.3,1.3,5,2.1,8.2s1.9,6.9,3.5,11.4v0.3c-1.4-3-3.4-5.8-5.9-8.2c-2-1.9-4.2-3.6-6.5-5.2
			c-2.1-1.4-4.1-2.9-6-4.5c-2-1.8-3.5-4-4.6-6.5h-0.3c1,3.1,1.9,5.6,2.5,7.4c0.5,1.5,1.1,3.1,1.8,4.5c0.6,1.1,1.3,2.2,2.2,3.1
			c0.9,0.9,2,1.9,3.4,3.1c3.8,3.3,7.1,6,9.9,8.3c2.7,2.2,5,4.8,6.8,7.8V40.5c0.1-5.2-1.5-10.2-4.4-14.5c-2.6-4.1-6.7-7-11.4-8.3V18
			C190,19.3,191.5,21,192.7,23z M162.7,171.7c-1.4,0-2.9-0.1-4.3-0.4c-1.3-0.3-2.9-0.6-4.8-0.9v0.1c-1.5-0.5-3.3-1.1-5.2-1.8
			c-2-0.7-4.4-1.6-7.1-2.6c-4.8-1.7-8.5-3-11-3.9c-2.4-0.8-4.9-1.3-7.4-1.3c-2.5,0-5.1,0.3-7.5,0.9c-2.6,0.6-4.4,1-5.7,1.3
			c-1.1-0.3-2.9-0.8-5.4-1.3c-2.5-0.6-5-0.9-7.5-0.9c-2.5,0-5,0.5-7.4,1.3c-2.5,0.9-6.2,2.1-11,3.8c-5.7,2.1-9.9,3.5-12.7,4.4
			c-2.8,0.9-5.6,1.3-8.5,1.3c-1.2,0-2.4-0.1-3.6-0.3c-1.1-0.1-2.1-0.4-3.1-0.8c0,0-2.4-0.7-3.8-1.3s-3-1.3-4.9-2.2l-0.3,0.3
			c2.8,3.1,9.1,7,9.1,7c4.3,2.6,9.3,4.1,14.4,4.1c1.9,0,3.7-0.1,5.6-0.4c1.7-0.3,3.3-0.7,4.9-1.4c1.6-0.7,3.4-1.6,5.4-2.6
			s4.3-2.4,7.1-4.1c2.9-1.9,5.4-3.4,7.4-4.5c2.1-1.1,4.5-1.7,6.8-1.7c1.1,0,2.1,0.2,3.1,0.5c-3.4,1.9-7.4,4.1-11.8,6.8
			c-4.7,2.9-9,6.5-12.8,10.6l4.4,3.9c3.8-4.5,8.1-8.7,12.7-12.4c4.5-3.7,8.5-6.1,11.9-7.4c3.4,1.2,7.4,3.7,12,7.4
			c4.7,3.7,8.9,7.9,12.8,12.4l4.4-3.9c-3.8-4.1-8.1-7.7-12.9-10.7c-4.5-2.7-8.5-4.9-11.9-6.8c1.1-0.3,2.2-0.5,3.4-0.5
			c2.4,0,4.8,0.5,6.9,1.7c2,1.1,4.5,2.6,7.4,4.5c2.6,1.6,4.8,2.9,6.8,4c1.7,1,3.5,1.9,5.3,2.6c1.6,0.6,3.2,1.1,4.8,1.4
			c1.7,0.3,3.4,0.5,5.1,0.5h1c4.1-0.1,8.1-1,11.8-2.6c4.5-1.9,8.4-4.8,11.5-8.5v-0.3c-2.8,1.3-5.6,2.5-8.6,3.5
			C167.3,171.4,165,171.8,162.7,171.7z M219.9,96.7c0-0.3,0-0.5,0-0.8s-0.1-0.8-0.1-1.2c-0.1-0.8-0.3-1.6-0.5-2.5
			c-0.4,3.2-1.5,6.3-3.2,9c-1.8,2.6-3.8,5.1-5.9,7.4l-0.4,0.4c-2.2,2.4-4.7,5-7.4,7.8c-3.2,3.5-6,7.3-8.5,11.3l-0.1-0.1
			c1.2-2.4,2.2-4.8,3-7.4c0.9-2.4,1.4-4.8,1.5-7.4c0-1.7-0.1-3.3-0.4-5c-0.3-1.5-0.6-3-0.9-4.8s-0.6-3.6-0.9-5.7
			c-0.3-2.5-0.4-5-0.4-7.5h-0.3c0,0.1-0.1,0.1-0.1,0.2v-0.2h-0.3c-1.2,3.3-2.2,6.6-2.8,10.1c-0.5,3.1-1.1,7.5-1.8,13.2
			c-0.3,3.3-0.6,6.1-0.9,8.4s-0.5,4.4-0.9,6.3c-0.3,1.8-0.8,3.5-1.4,5.2c-0.5,1.3-1.1,2.7-1.8,4.2c-0.1,0.2-0.3,0.5-0.4,0.7l0.1-0.1
			v0.1l6.4-4.3l12.9-8.4c1.8-1.3,3.5-2.8,5-4.5c1.9-2.1,3.5-4.4,4.9-6.8c0.9-1.6,1.7-3.3,2.5-5c0.5-1.1,0.9-2.2,1.3-3.3
			c1-2.9,1.6-5.9,1.6-9l0,0l0,0C220,97,220,96.8,219.9,96.7z M144.7,20.5c0.5,0.2,0.9,0.5,1.4,0.8c0.3,0.3,0.6,0.6,0.9,1
			c0.2,0.3,0.5,0.5,0.9,0.5c0.5,0,0.8-0.2,0.8-0.5s0-0.5-0.1-0.4s-0.1,0-0.1-0.4c0-0.6-0.1-1.1-0.5-1.5c-0.6-0.7-1.5-0.9-2.3-0.5
			c-0.1-0.1-0.3-0.2-0.5-0.3h-0.3c-0.5,0-0.8,0.2-0.8,0.5C144.1,20.1,144.4,20.5,144.7,20.5z M117.3,14.3h0.5c1-0.4,2-0.6,3.1-0.7
			h3.6c0.6,0,1.2-0.2,1.6-0.6c0.3-0.4,0.6-0.8,0.8-1.2c-0.8-1-1.9-1.7-3.1-1.8c-0.9-0.1-1.7-0.2-2.6-0.3c-1.1,0.2-2.1,0.5-3.1,0.9
			c-1.7,0.6-2.8,1-3.1,1.2c-0.9-0.2-1.4,0-1.6,0.5c0.4,0.4,0.9,0.8,1.4,1.2C115.6,14.1,116.4,14.4,117.3,14.3z M109.5,156
			c43.1,0,78-34.9,78-78s-34.9-78-78-78s-78,34.9-78,78C31.5,121.1,66.4,155.9,109.5,156z M35.5,80h11.8c0.2,5.2,1,10.4,2.4,15.4
			c-0.4-0.1-0.7-0.3-0.9-0.6l-0.4-0.4l-1.3-1.8L45,93.3c0,1.2-0.4,1.7-1.3,1.3c-0.2-0.3-0.6-0.5-1-0.5c-1.3-0.1-2.4,0.9-2.5,2.2
			c0,0,0,0,0,0c-0.2,1-0.3,2-0.4,3l1.8,4.7c0.3,0.5,0.9,0.6,1.6,0.3c0.5,0.6,1,1.2,1.6,1.8c0.4,0.3,0.8,0.5,1.3,0.5
			c0.5,0,0.8-0.3,0.8-0.8h0.3c0.4,0.4,0.7,0.8,1.1,1.2c0.4,0.5,0.8,0.8,1.3,1.2v-0.2c0.6,0.6,1.4,0.9,2.2,0.9
			c0.3,1.1,0.8,2.1,1.5,2.9c0.5,0.6,1.2,0.9,2,1c0.4,0,0.7-0.2,1-0.5c0.3,0.9,0.7,1.8,1.3,2.6c0.4,0.2,0.9,0.5,1.3,0.8
			c0.4,0.2,0.7,0.5,1,0.8h0.5l0,0c0.2,0.8,0.7,1.5,1.3,2.1c0.5,0.5,1,0.9,1.6,1.3l-0.2,0.1h0.1h0.2c0.2,0.2,0.3,0.4,0.5,0.6
			l-8.2,8.5C43.2,115.7,35.9,98.3,35.5,80L35.5,80z M92.6,58.1L92,57.7l-0.8-0.8c4.6-4,10.3-6.4,16.3-6.8v8.2
			c-0.1-0.1-0.2-0.1-0.4-0.2c-0.1-0.1-0.1-0.2-0.2-0.3c0,0-0.1,0-0.1,0c-0.2-0.1-0.4-0.2-0.6-0.1c-0.1,0-0.2,0-0.3,0h-0.1
			c-0.2,0-0.4,0-0.6,0.1c-0.2,0.1-0.4,0.1-0.6,0.1c-0.1,0-0.2,0-0.3-0.1c-0.3-0.2-0.4-0.6-0.4-1.2l0,0l0,0c-0.7,0.3-1.1,0.7-1.2,1
			s-0.2,0.9-0.4,1.8c-0.2,0.7-0.7,1.3-1.4,1.4c-0.6,0.2-1.1,0.5-1.6,0.9l-0.8-0.5h-1.3c-0.2-0.2-0.5-0.5-0.8-0.6
			c-0.2-0.1-0.4-0.2-0.5-0.4c-0.2-0.2-0.3-0.2-0.3,0c-0.3,0-0.6,0.2-0.7,0.6l-0.8-0.8l0.2-0.1v-0.5C94,59,93.3,58.5,92.6,58.1z
			 M88.4,54.1l-8-8c7.4-6.8,17-10.8,27.1-11.3v11.3C100.4,46.6,93.7,49.4,88.4,54.1L88.4,54.1z M92.9,91.6c0.4-0.4,0.2-1.2,0.4-1.7
			l-0.9,0.8c0.6-0.6,1.2-1.2,1.6-2c0.2-0.5,0.5-1,0.8-1.4h0.1c0.3,0.6,0.6,1.1,0.9,1.6l-7.3,7.3c-2.9-3.4-5-7.4-6-11.7
			c0.6,0.1,1.2,0.2,1.8,0.5c0.6,0.5,1.1,1,1.6,1.5c0.3,0,0.7-0.1,1-0.3l1,0.8c0,0.7,0.1,1.1,0.3,1.3c0,0.2,0.3,0.4,0.8,0.7
			c0.5,0.2,0.9,0.5,1.1,1l0.5-0.3c0-0.3-0.1-0.7-0.1-1c-0.1-0.5,0-0.8,0.1-0.8l0.5,1.8l0.5,2.1l0,0C92,92,92.5,91.9,92.9,91.6
			L92.9,91.6z M108.4,99.9c0.4,0.4,0.7,0.7,0.7,0.9c0,0.5-0.7,0.8-2.1,0.8c-0.5,0-0.9,0.5-1,1.5s-0.3,1.8-0.5,2.5l-0.4-0.1
			c0,0,0,0.1,0,0.1c-5.1-0.8-9.9-3.1-13.8-6.4l7-7c2.7,2.6,6.1,4.1,9.8,4.5c0,0.4,0.1,0.8,0.3,1.1c-0.3,0.3-0.5,0.8-0.5,1.3
			C107.7,99.2,107.9,99.5,108.4,99.9L108.4,99.9z M73.8,100.4c-0.1-1.5-0.3-2.9-0.5-4.4c-0.2-0.8-0.5-1.6-0.8-2.3
			c-0.1-1.2-0.4-2.4-0.8-3.5c-0.7-1.2-1.5-2.3-2.5-3.2v-1.5c-0.1-0.5-0.3-1-0.5-1.5v-0.3c0-0.3,0.1-0.6,0.4-0.7l2.7-1
			c-0.1-0.8,0-1.6,0.3-2.4l1.9,0.3c0.5,0,0.8-0.3,0.8-1.1c-0.1-0.6-0.3-1.1-0.5-1.6c-0.3-0.6-0.4-1.2-0.5-1.9c0-0.4,0.3-0.7,0.8-0.9
			c0.5-0.3,1-0.4,1.6-0.4c0.7-0.1,1.4,0.3,1.8,0.9c0.3,0.6,0.5,1.3,0.5,1.9c0,0.5,0,0.9-0.1,1.4c-0.1,0.4-0.1,0.8-0.1,1.2l0.5,0.3
			c-0.3,1.7-1,2.6-2.1,2.6c-0.5,0-0.9-0.2-1.2-0.7c-0.2-0.4-0.5-0.6-0.9-0.7c-0.2,0-0.3,0.1-0.3,0.3c0,0.4,0.1,0.7,0.3,1.1
			c0.2,0.4,0.3,0.9,0.3,1.3c0,1.2-0.6,1.7-1.6,1.3c-0.3,0.7,0,1,1.1,1c0.4,1,0.7,1.5,1.1,1.3c0.3-0.5,0.5-1.1,0.5-1.8
			c0.1-0.7,0.3-1.4,0.5-2.1l0.3,0.3l1.1-0.3c0,0.1,0,0.3,0.1,0.4h0.3c1,5.7,3.6,11,7.5,15.4l-11,11c-0.5-0.4-0.7-1.1-0.6-1.7
			c0.2-1.1,1.3-1.7,1.4-2.8c0-0.1,0.3-2.1,0.3-2.1C74.4,101.8,73.8,100.8,73.8,100.4L73.8,100.4z M67.5,84.2c0.2,0.3,0.2,0.7,0.3,1
			c0,0.5-0.2,0.7-0.5,0.7c-0.1,0-0.1,0-0.2,0c-0.4-1.9-0.6-3.9-0.7-5.8h2.2c0,0.3-0.1,0.7-0.2,1c-0.2,0.4-0.4,0.7-0.7,1
			c-0.2,0.3-0.4,0.6-0.4,1C67.2,83.4,67.3,83.8,67.5,84.2z M66.3,76.1c0.5-10.1,4.4-19.7,11.3-27.1l8,8l-0.2,0.3
			c-0.5,0.1-0.9,0.3-1.4,0.5c-0.3,0.4-0.7,0.9-1.2,1.5c-0.9,0.3-1.7,0.8-2.5,1.3c-0.7,0.6-1.4,1.3-2,2.1c-0.7,0.3-1.3,0.6-2,0.9
			c-0.3,0.1-0.7,0.4-0.9,0.6c0.3,0.9,0.3,1.3,0,1.4l-2.6,0.7c-0.2,0-0.4,0.1-0.5,0.3l-0.8,0.8c-0.2,0.3-0.3,0.6-0.3,0.9
			c0,0.3-0.1,0.6-0.3,0.9c-0.5,0.3-1,0.8-1.3,1.3c-0.3,0.8-0.3,1.6,0,2.3l0.3,2.6H70c0.1,0.3,0.2,0.5,0.2,0.8L66.3,76.1z
			 M88.3,101.9c3.9,3.5,8.7,6,13.8,7.2c-0.4,0.1-0.8,0.3-1.1,0.4c-0.8,0.2-1.4,0.9-1.6,1.7c-0.2,1-0.6,1.7-1.2,2s-0.8,0.7-0.6,1.2
			c0.9,0.9,1.5,2,1.8,3.1c0.3,1.2,1.4,2.1,2.6,2.3l1.6,0.5c0.6,0,1.1,0.2,1.5,0.6c0.5,0.1,0.9,0.1,1.4,0.2
			c-9.7-0.7-19-4.6-26.2-11.2L88.3,101.9z M77.6,43.3l-7.9-7.9c10.3-9.6,23.7-15.2,37.8-15.7v11.2C96.4,31.4,85.8,35.8,77.6,43.3z
			 M74.8,46.1c-7.6,8.2-12,18.8-12.4,29.9H51.3c0.5-14.1,6-27.5,15.7-37.8L74.8,46.1z M62.4,80c0.1,1.9,0.3,3.8,0.6,5.7
			c-0.1-0.2-0.3-0.5-0.4-0.8c-0.6-0.8-1.1-1.3-1.5-1.3c-0.5-0.1-0.9,0.2-1,0.7c-0.2,0.4-0.5,0.8-0.8,1.2c-0.9,0.6-1.8,1.1-2.9,1.3
			c-0.8,0.9-1.3,2-1.6,3.1c-0.2,0.3-0.1,0.7,0.1,1c0.3,0.3,0.1,0.7-0.4,1c0.3,0.7,0.4,1.1,0.3,1.3c0.2,0.3,0.1,0.5-0.1,0.4
			c-0.2-0.1-0.5,0-0.7,0.1c-0.2,0.2-0.3,0.4-0.4,0.6c-1.4-4.7-2.1-9.5-2.3-14.4H62.4z M107.5,152c-18.3-0.5-35.8-7.7-49-20.3
			l8.4-8.4c11,10.4,25.5,16.4,40.6,16.8L107.5,152z M107.5,136.2c-14-0.4-27.4-6-37.6-15.5c0.7,0.3,1.4,0.5,2.2,0.6
			c0.7,0,1.4-0.2,2.1-0.5c0.9-0.4,1.7-0.7,2.3-1.1c0.8,0.1,1.6-0.1,2.3-0.5c0.6,0.2,1.3,0.2,1.9,0c0.6-0.1,1-0.7,0.9-1.3
			c0-0.6-0.4-1.1-0.9-1.4c-0.6-0.4-0.9-0.8-0.9-1.2c0-0.2-0.2-0.4-0.5-0.7c-0.6-0.6-1.2-1.2-1.7-1.9l0,0
			c8.2,7.5,18.8,11.9,29.9,12.4L107.5,136.2z M109.6,107.2L109.6,107.2c-0.9,0-1.8-0.1-2.6-0.5c-0.1-0.2-0.2-0.4-0.3-0.7
			c0.4-0.3,0.8-0.6,1.2-0.8c0.5-0.3,1-0.6,1.6-0.7V104l1.9-1.4c0.2-0.1,0.4-0.2,0.7-0.3c0.5-0.1,1-0.3,1.5-0.5
			c0.7,0.2,1.4,0.5,2,0.9c0.6,0.4,1.3,0.7,2,0.9l0.3-1c0.3,0,0.9,0.3,1.6,1c0.5-0.1,0.9-0.2,1.3-0.5c0.2-0.4,0.2-0.9,0-1.3
			c0.3,0,0.5,0.1,0.8,0.3c0.1,0,0.3,0,0.4,0.1c0.1,0.1,0.2,0.1,0.4,0.1h0.3c0.5-0.1,1-0.3,1.4-0.7c0.5-0.3,0.9-0.6,1.4-0.9
			c0.1-0.1,0.3-0.2,0.5-0.1c0,0,0,0,0.1,0.1c0.2,0.3,0.3,0.6,0.3,1c0,1.4-0.9,2.6-2.2,3.1c-1.2,0.6-2.5,1.1-3.8,1.6
			c-0.3,0.4-0.5,0.7-0.7,1.2c-0.3,0.6-0.6,0.9-0.9,0.9c-1.1-0.1-2.1-0.2-3.2-0.5c-0.3-0.5-0.6-1-0.8-1.6c-0.6,0-1.3,0.1-1.9,0.3
			l-2.1,0.5C110.4,107.3,110,107.3,109.6,107.2L109.6,107.2z M120.9,98.6c0.1-0.8,0.6-1.4,1.3-1.7c0.7-0.3,1.4-0.4,2.1-0.4
			c0,0.5-0.5,1-1.4,1.6c-0.5,0.3-1.1,0.6-1.7,0.8L120.9,98.6z M128.9,92.3c0.7,0.4,1.1,1.2,1,2c0,0.5-0.3,1-0.8,1
			c-0.1,0-0.1,0-0.2,0c-0.5,0-1-0.6-1.3-1.8c-1.2-0.3-1.9-0.9-2.1-1.7s-0.1-1.3,0.3-1.4c0.3-0.2,0.7-0.3,1-0.4
			c0.3-0.1,0.4,0.3,0.3,1.2L128.9,92.3z M153.9,48.7c0.2,0,0.4,0.1,0.5,0.3c0.6,0,1.3,0.2,1.8,0.5c1.2,1.2,2.3,2.5,3.1,3.9
			c0.2,0,0.4,0.3,0.6,0.8s0.6,0.8,0.9,0.8c0.5-0.1,0.9-0.2,1.3-0.4c0.1-0.3,0.1-0.5,0.2-0.7c3.2,7,5,14.5,5.2,22.2h-11
			c0-0.1,0-0.1,0.1-0.2c0.1-1-0.2-2-0.6-2.9c-0.6-1.2-0.7-2.6-0.4-3.8c0.3-0.7,0.3-1.5,0.1-2.2c-0.4,0-0.7,0.1-1,0.3
			c-0.3,0.4-0.5,0.7-0.7,1.2c-0.3,0.6-0.5,1.1-0.6,1.4v0.1c-0.1,0.2-0.1,0.3-0.2,0.5c-0.1,0.2-0.1,0.4-0.3,0.7
			c-0.2,0.7-0.4,1.4-0.5,2.1c-0.1,0.7-0.1,1.4,0,2.1l0,0c0,0.3,0,0.5,0,0.8H147c0.3-0.3,0.7-0.6,1.2-0.8H148l1.5-0.8
			c-0.3-0.1-0.5-0.4-0.5-0.8c0-0.5,0.1-0.8,0.3-0.9s0.7-0.3,1.5-0.6c0.6-0.7,1-1.6,1.4-2.4c0.7-1.4,2-3.5,2-5.2
			c0-0.4-0.5-0.9-0.6-1.3c0-0.4,0.1-0.7,0.1-1.1c0.1-1.8,0.8-5-1.5-5.6c-0.2,0-0.3-0.3-0.3-0.8c0.6-0.5,0.8-1.3,0.5-2h-1.6
			c0.1-0.3,0.2-0.6,0.4-0.9c0.2-0.3,0.4-0.7,0.4-1.2c0-0.4-0.2-0.7-0.6-0.8c-0.1,0-0.1,0-0.2,0c-0.5,0-0.9,0.1-1.3,0.3
			c-0.3,0.1-0.5,0.2-0.8,0.3c-0.1,0-0.3,0-0.4,0c-0.1-0.2-0.3-0.4-0.4-0.5c-0.1-1-0.5-1.9-1.1-2.5c-0.5-0.7-1.3-1.2-2.1-1.5
			l-0.1-0.1c0.1-0.4,0.1-0.7,0-1.1l2.2-2.2l3.2,1.2c-0.1,0.7,0.2,1.4,0.8,1.8c0.3,0.3,0.7,0.5,1.1,0.8c0.4,0.3,0.9,0.6,1.3,0.9v0.2
			c0.3,0.3,0.6,0.5,0.8,0.5L153.9,48.7z M143.2,124.2c-0.2-0.2-0.4-0.3-0.6-0.3c-0.3,0-0.4-0.2-0.4-0.5s0.3-0.7,0.8-1
			c0.6-0.5,1.1-1.1,1.3-1.8c0.3-0.5,0.5-1,0.5-1.6c0-0.3-0.1-0.6-0.4-0.7c-0.4-0.1-0.7-0.4-0.9-0.7c-0.3-0.2-0.7-0.3-1.2-0.5
			c-0.5-0.2-1-0.5-1.4-0.8c-0.5-0.3-0.8-0.8-0.8-1.3c0.1-0.4,0.2-0.9,0.4-1.3c0.1-0.2,0.2-0.5,0.3-0.7l0.6-0.5l6,6
			c0,0.7,0.4,1.1,1.2,1.2l0.7,0.7c-2.1,2-4.3,3.8-6.7,5.4c0.1-0.3,0.2-0.5,0.4-0.7c0.1-0.1,0.2-0.2,0.3-0.2
			C143.3,124.8,143.3,124.5,143.2,124.2L143.2,124.2z M139.5,95.6c-0.5-0.1-1.1,0-1.5,0.4c-0.8,0.2-1.3,0.8-1.6,1.5
			c0,0.1-0.1,0.2-0.2,0.3c0,0,0,0-0.1,0c-0.3,0-0.7,0.1-1,0.3c-0.4,0.1-0.9,0.3-1.3,0.5c-0.5,0-0.8-0.2-0.8-0.5c0-0.5,0.8-0.9,2.3-1
			c0.7-0.8,1.1-1.4,1.3-1.5c0.4-0.3,0.8-0.4,1.2-0.5c0.8-0.5,1.5-1.1,2-1.9c0.4-0.5,0.8-1.1,1-1.7h0.2c0,0.8,0.4,1.3,1.1,1.3
			c0.5,0,1-0.6,1.4-1.8c0.7,0.3,1.4,0.4,2.2,0.5c0.8,0.1,1.5-0.3,1.9-1h3.3c0,0.1,0,0.2-0.1,0.2c0,0.1-0.1,0.1-0.1,0.2l0,0
			c-1.8,5.7-4.8,11-8.8,15.5l-0.1-0.8c-0.1,0.1-0.8-2.4-0.9-2.4s-0.7,0.6-1.2,1.8s-0.8,2-1,2.3l-2.6,0.5c-0.8,0.2-1.5,0.3-2.3,0.3
			c-0.8-0.2-1.5-0.5-2.2-0.9c-0.7-0.4-1.4-0.7-2.2-0.9c-0.7-0.2-1.5-0.4-2.2-0.5c-0.9-0.2-1.4-0.4-1.4-0.8c0-0.5,0.3-0.8,1-0.8
			c0.7,0.1,1.4,0.2,2.1,0.4c1,0.3,2.1,0.5,3.1,0.8s2,0.5,2.9,0.8c0.5,0.2,1,0.3,1.6,0.4l1.6-0.5c0.1-0.5,0.2-1,0.5-1.4
			c0.3-0.4,0.5-0.9,0.5-1.4c0.5-0.9,0.8-1.9,1-2.9c0.2-1,0.4-2.1,0.4-3.1C140.4,96.4,140.1,95.9,139.5,95.6L139.5,95.6z M146.5,80
			h6.1c-0.1,2.6-0.4,5.1-1,7.6c-0.3-0.8-0.8-1.6-1.3-2.3l-2.1-2.1c-0.2-0.9-0.3-1.5-0.4-1.8c-0.1-0.2-0.2-0.4-0.4-0.6
			C147.1,80.6,146.8,80.3,146.5,80z M149,111.8c-0.5,0-0.8,0.1-0.8,0.4c0,0.5-0.1,1.1-0.3,1.6l-3.9-3.9c5.3-5.7,9.1-12.6,11-20.2
			l0.2-0.2c0.9,0.3,1.5,0.3,1.7,0c0.2-0.2,0.3-0.5,0.4-0.8c-0.2-0.8-0.6-1.5-1.3-2.1h-0.3c0.4-2.2,0.7-4.5,0.8-6.8h11.2
			c-0.5,14.1-6.1,27.5-15.7,37.8l-0.5-0.5c0,0,0-0.1,0-0.1c-0.2-1.2-0.3-2.4-0.6-3.5S150.1,111.8,149,111.8z M146.3,55.5
			C146.3,55.5,146.3,55.5,146.3,55.5c0,0.5-0.1,0.9-0.3,1.4c-0.1,0.4-0.3,0.9-0.5,1.3c0.6,0.7,1.3,1.3,2.1,1.8
			c0.8,0.5,1.6,1.2,2.3,1.8c0.5,0.9,0.9,2,1.2,3c0.3,0.9,0.5,1.8,0.6,2.8c-0.2,0.6-0.4,1.3-0.8,1.8c-0.5,1-1.5,1.6-2.6,1.6l-0.3-0.3
			c0.1-0.5,0.2-1.1,0.5-1.5c0.3-0.5,0.5-1,0.5-1.5c0.6-0.3,0.9-0.9,1-1.5l-0.8-0.4c-0.5-0.3-0.9-0.7-1.3-1.2c0-0.5-0.5-0.8-1.6-0.8
			c-0.5,0-0.9,0.1-1.3,0.4c-0.4,0.3-0.8,0.6-1.3,0.9l-0.5-1c0.2-0.3,0.3-0.7,0.3-1.1l-2.1-3.5c-0.9-0.5-1.9-0.8-2.9-0.9
			c-0.7-0.1-1.4-0.1-2.1,0.1c-0.7,0.1-1.3,0.1-2-0.1c-0.8-0.1-1.5,0.2-2.1,0.7c-0.6,0.5-1.2,1-1.7,1.7c-0.3,0.3,0.1,0.7-0.7,0.6
			c-0.2-0.2-0.5-0.4-0.6-0.7L141.3,49c0.1,0.1,0.2,0.3,0.3,0.4c0.2,0.2,0.5,0.6,1,1.2c0.4,0.4,0.7,0.9,1.1,1.4
			C144.7,53,145.5,54.2,146.3,55.5L146.3,55.5z M118,133.3c1,0.8,2.1,1.4,3.3,1.7c-3.2,0.7-6.5,1.1-9.9,1.2v-11.1l0,0
			c0.4,0.7,1,1.3,1.7,1.8c0.7,0.2,1.5,0.4,2.3,0.4c1.2,0.1,1.8,0.3,1.8,0.6c0,0.4-0.2,0.8-0.4,1.2c-0.2,0.4-0.4,0.8-0.4,1.2
			C116.4,131.5,117,132.6,118,133.3z M111.5,152v-11.8c4.3-0.1,8.7-0.7,12.9-1.8c0,0.1,0.1,0.2,0.1,0.3c0,0.1,0.1,0.2,0.1,0.3
			c1,0.6,1.9,1.5,2.6,2.5c0.3,0.7,1.3,1,2.8,1c0.9,0,1.4-0.2,1.7-0.5c0.3-0.4,0.6-0.7,0.9-1c0.4-0.4,0.8-0.6,1.3-0.8
			c0.4-0.1,0.8-0.4,1-0.8c0.8-0.3,1.4-0.8,1.8-1.6c0.7-0.5,1.2-1.2,1.6-2.1c0.4-0.1,0.8-0.3,1-0.6c0.5-0.8,0.8-1.8,1-2.7l0.4-0.3
			c0-0.1,0-0.3,0.1-0.4c4.1-2.4,7.8-5.2,11.3-8.4l8.4,8.4C147.1,144.3,129.7,151.5,111.5,152z M163.2,129l-8.4-8.4
			c10.4-11,16.4-25.5,16.8-40.6h11.9C183.1,98.3,175.8,115.7,163.2,129z M183.5,76.1h-11.9c-0.4-12.5-4.6-24.6-12-34.7
			c-0.1-0.4-0.3-0.8-0.6-1.1c-0.2-0.2-0.4-0.4-0.7-0.6c-1-1.2-2-2.4-3-3.6c-0.1-0.3-0.2-0.5-0.3-0.8l8.1-8.2
			C175.8,40.4,183,57.8,183.5,76.1L183.5,76.1z M111.5,4c18.3,0.5,35.8,7.7,49,20.3l-7.2,7.2c-0.2-0.4-0.3-0.7-0.4-1.1
			c-0.6-0.5-0.9-0.8-1.1-0.8c-0.7-0.3-1.1-0.9-1.2-1.6c0-0.6-0.3-1.2-0.6-1.7c-1.1-0.4-2.1-1.3-2.6-2.3c-0.7-1.2-1.4-1.8-2.1-1.8
			c-0.6,0.2-1.2,0.1-1.7-0.2c-0.5-0.2-1.1-0.4-1.7-0.5c-0.6,0-1.2,0.1-1.8,0.3c-0.7,0.2-1.3,0.4-2,0.5c-0.1,0.1-0.2,0.2-0.3,0.3
			c-7.9-4-16.5-6.3-25.3-6.7c0.7-1.1,0.8-1.8,0.3-2.1c-0.2-0.1-0.5,0.1-1.1,0.6L111.5,4z M111.5,19.8c8.4,0.3,16.7,2.4,24.2,6.2
			c0,0.1,0,0.1,0,0.2c0.3,0.3,0.6,0.7,1,1.1c0.3,0.3,0.6,0.7,0.9,1c0.2,0.8,0.5,1.6,0.8,2.3c0.2,0.4,0.5,0.9,0.8,1.3
			c-0.2,0.7,0,1.5,0.4,2.2c0.4,0.8,0.9,1.5,1.4,2.2c0.3,0,0.7-0.1,1-0.1c0.4-0.1,0.9-0.1,1.3-0.1c0.3,0,0.7,0.3,1.2,0.8
			c0.4,0.5,0.7,1,0.9,1.5c0.1,0.3,0.2,0.6,0.2,0.9l-3.2,3.2l0,0c-0.3-1.5-0.8-3-1.5-4.4c-0.5-0.5-1.3-0.8-2.1-0.7
			c-0.2-0.2-0.8-0.9-1.8-2.2s-1.6-2-1.8-2c-0.3,0-0.6,0.1-0.8,0.3c0.1,0.3,0.3,0.6,0.5,0.9c0.2,0.3,0.5,0.8,1,1.7
			c0,0.3-0.1,0.5-0.4,0.5c0,0-0.1,0-0.1,0c0.1,0.7,0.6,1.2,1.3,1.3l-0.3,0.5l0.8,1.5c-7.5-5.5-16.5-8.6-25.8-9L111.5,19.8z
			 M111.5,34.9c10.1,0.4,19.7,4.4,27.1,11.3l-8,8c-5.3-4.7-12-7.6-19.2-8L111.5,34.9z M111.5,50.1c5.7,0.4,11.1,2.5,15.5,6.1
			c-0.2,0.1-0.4,0.2-0.5,0.3c-0.2,0.1-0.3,0.3-0.5,0.4c-0.2,0.1-0.3,0.3-0.3,0.6s0.6,0.6,1,0.7l-3.1,3.1l0,0
			c-0.4,0.2-0.8,0.5-1.2,0.8c-0.7,0.3-1.1,0.7-1.2,0.9s-0.2,0.5-0.3,0.9l-1,1c-0.1,0-0.3,0.1-0.4,0.1c-0.3,0-0.9-0.3-1.6-1.1
			s-1.2-1-1.6-1c-0.4,0-0.9,0.1-1.2,0.4c-0.2,0.3-0.6,0.3-0.9,0.1c-0.3-0.4,0-0.8,1.2-1.2s1.9-0.8,2.3-0.9c1.4-1,2.1-2.6,2.1-4.2
			c0-0.9-0.4-1.3-1.1-1.3l-0.8,0.8c-0.7,0.3-1.3,0.7-1.9,1.3c-0.5,0.5-1,0.9-1.3,1.3c-0.5-0.2-1-0.3-1.6-0.3h-1.6l-0.1,0.1
			L111.5,50.1z M109.2,68c0.1,0.3,0.3,0.4,0.5,0.4c0.5,0,0.9,0.1,1.3,0.4c0.4,0.3,0.9,0.3,1.3,0.2c0,0.2,0.1,0.4,0.3,0.5
			c0.2,0.4,0.6,0.6,1,0.6c0.1,0.1,0.2,0.2,0.3,0.3c0.1,0.1,0.1,0.2,0.2,0.3c0.1,0.3,0.3,0.6,0.4,0.9h0.1c0,0.1,0.1,0.1,0.1,0.2
			c0.2,0.2,0.6,0.2,0.8,0.1c0.2-0.1,0.4,0,0.7,0.1c0,0.2,0,0.4,0,0.6h0.2c0,0.2,0.1,0.4,0.1,0.6c0.1,0.4,0.1,0.8,0.1,1.2v0.5
			c0,0.1-0.1,0.2-0.2,0.3c0,0,0,0-0.1,0c-0.5,0.4-0.8,0.9-0.8,1.5c0,0.3,0.2,0.5,0.7,0.4c0.4-0.1,0.8,0,1,0.4c0.4,0.4,0.6,1,0.6,1.5
			v2.3c0,0.3,0.1,0.6,0.4,0.8c0.3,0.2,0.4,0.3,0.4,0.5c0,0.7-0.1,1.3-0.3,1.9c-0.1,0.6-0.4,1.2-0.8,1.7c-0.2,0.2-0.6,0.2-1.3,0
			c-0.6-0.2-1.2-0.2-1.9-0.3c-0.4,0-0.7,0.5-1.1,1.5c-0.3,0.8-0.6,1.5-0.8,2.3c-0.2,0.7-0.5,1-1.1,1c-0.4,0-0.7,0-1.1,0.1L110,91
			l-0.9,1.4l-0.3,0.4c-2.9-0.2-5.7-1.4-7.8-3.4l1.3-1.3c0.9-0.1,1.7-0.3,2.5-0.6l0.4-0.2c1.4-0.6,1.3-1.7,2-2.9
			c0.4-0.8,1.8-1.7,0.7-2.6c1.2-2-4.2-2.1-5.2-1.6c-1.1,0.5-0.4,1.7-1,2.6c-0.3,0.5-0.8,0.5-1.2,0.8c-0.9,0.7-1.6,1.6-2,2.7l0,0
			c-0.4-0.6-0.7-1.3-0.9-2c0.1,0,0.1,0,0.2,0c-0.1-0.2-0.1-0.4-0.1-0.4H98V84c0.7,0.2,1.1,0.2,1.3,0c0.2-0.5,0.3-0.9,0.4-1.4
			c0.4-1.1,0.8-2.1,1.4-3.1c-0.3-0.2-0.5-0.4-0.6-0.8c-0.1-0.3-0.3-0.4-0.6-0.3c-0.3,0.1-0.5,0.5-0.5,0.8c0,0.4-0.2,0.7-0.5,1
			c-0.2,0.3-0.6,0.5-1,0.5c0.1-0.4-0.2-0.7-0.6-0.8c-0.1,0-0.1,0-0.2,0c-0.4,0-0.7,0.2-1,0.5c-0.3,0-1.2,0.1-2.5,0.3
			c-0.8,0.2-1.7,0.2-2.5,0c-0.3-0.3,0.1-0.7,1.3-1c-0.1-1.2,0.4-2.4,1.3-3.1c0.5,0.3,1,0.5,1.6,0.5l0.5-0.5h0.3
			c0.5,0,0.8,0.4,0.9,1.3s0.3,1.3,0.7,1.3c0.4,0,0.7-0.2,1-0.5v-1.3c0.3-1.4,0.6-2.3,0.8-2.9v-0.8c0.2-0.5,0.5-0.9,0.8-1.3h0.3
			c0.3-0.3,0.8-0.5,1.2-0.6c0.3-0.5,0.5-1,0.5-1.6c0.5-0.2,1.4-0.5,2.7-1.1s2-1.1,2-1.6v-0.1c0.6-0.1,1.2-0.2,1.8-0.3
			C108.8,67.6,109,67.8,109.2,68z M107.5,4v11.9C92.4,16.3,78,22.3,66.9,32.7l-8.4-8.4C71.8,11.7,89.2,4.5,107.5,4z M55.8,27.1
			l8.4,8.4c-10.4,11-16.4,25.5-16.8,40.6H35.5C35.9,57.8,43.2,40.3,55.8,27.1z"/>
	</g>
</g>
</svg>
